<svg width="548" height="144" viewBox="0 0 548 144" fill="none" xmlns="http://www.w3.org/2000/svg">
<path d="M6.03633 141.788C5.103 141.788 4.16966 141.254 3.23633 140.188C2.43633 138.988 1.76966 137.654 1.23633 136.188C0.836328 134.721 0.636328 133.388 0.636328 132.188C0.636328 131.521 0.702995 130.921 0.836329 130.388C0.969662 129.721 1.503 128.788 2.43633 127.588L65.4363 44.9876L69.8363 51.5876H7.43633C4.903 51.5876 3.63633 49.5876 3.63633 45.5876V43.1876C3.63633 39.1876 4.903 37.1876 7.43633 37.1876H78.0363C79.103 37.1876 80.0363 37.7209 80.8363 38.7876C81.6363 39.8543 82.2363 41.1876 82.6363 42.7876C83.1697 44.2543 83.4363 45.5876 83.4363 46.7876C83.4363 47.4543 83.3697 48.1209 83.2363 48.7876C83.103 49.3209 82.5697 50.1876 81.6363 51.3876L18.6363 133.988L14.4363 127.388H79.8363C82.503 127.388 83.8363 129.388 83.8363 133.388V135.788C83.8363 139.788 82.503 141.788 79.8363 141.788H6.03633ZM145.782 142.988C130.448 142.988 118.648 138.988 110.382 130.988C102.248 122.988 98.1816 109.321 98.1816 89.9876C98.1816 78.3876 99.9816 68.5876 103.582 60.5876C107.182 52.5876 112.448 46.5209 119.382 42.3876C126.448 38.1209 134.982 35.9876 144.982 35.9876C154.048 35.9876 161.582 37.9876 167.582 41.9876C173.715 45.8543 178.248 51.6543 181.182 59.3876C184.248 67.1209 185.782 76.5876 185.782 87.7876C185.782 88.9876 185.448 90.2543 184.782 91.5876C184.115 92.9209 183.248 94.0543 182.182 94.9876C181.115 95.9209 179.982 96.3876 178.782 96.3876H115.782C116.048 107.454 118.648 115.588 123.582 120.788C128.515 125.988 136.048 128.588 146.182 128.588C152.582 128.588 157.982 127.854 162.382 126.388C166.915 124.921 170.448 123.454 172.982 121.988C175.648 120.521 177.315 119.788 177.982 119.788C178.915 119.788 179.715 120.388 180.382 121.588C181.182 122.654 181.848 123.921 182.382 125.388C182.915 126.854 183.182 128.121 183.182 129.188C183.182 130.388 182.182 131.788 180.182 133.388C178.315 134.854 175.648 136.388 172.182 137.988C168.848 139.454 164.915 140.654 160.382 141.588C155.848 142.521 150.982 142.988 145.782 142.988ZM115.782 81.9876H168.582C168.582 71.4543 166.382 63.5876 161.982 58.3876C157.582 53.0543 151.315 50.3876 143.182 50.3876C137.315 50.3876 132.382 51.7209 128.382 54.3876C124.382 56.9209 121.315 60.5209 119.182 65.1876C117.048 69.8543 115.915 75.4543 115.782 81.9876ZM220.794 142.188C217.861 142.188 215.794 141.788 214.594 140.988C213.527 140.188 212.994 139.121 212.994 137.788V67.1876C212.994 61.7209 212.794 57.2543 212.394 53.7876C212.127 50.3209 211.794 47.5876 211.394 45.5876C211.127 43.5876 210.994 42.1876 210.994 41.3876C210.994 40.7209 211.394 40.1209 212.194 39.5876C212.994 39.0543 213.994 38.6543 215.194 38.3876C216.394 37.9876 217.661 37.7209 218.994 37.5876C220.327 37.4543 221.527 37.3876 222.594 37.3876C223.794 37.3876 224.727 37.8543 225.394 38.7876C226.061 39.5876 226.661 40.9876 227.194 42.9876C227.727 44.8543 228.327 47.5209 228.994 50.9876C231.661 47.7876 234.661 45.1209 237.994 42.9876C241.327 40.7209 244.794 38.9876 248.394 37.7876C252.127 36.5876 255.861 35.9876 259.594 35.9876C266.394 35.9876 272.194 37.3209 276.994 39.9876C281.927 42.5209 285.661 46.1876 288.194 50.9876C290.861 55.7876 292.194 61.5876 292.194 68.3876V137.788C292.194 139.121 291.594 140.188 290.394 140.988C289.327 141.788 287.327 142.188 284.394 142.188H282.794C279.861 142.188 277.794 141.788 276.594 140.988C275.527 140.188 274.994 139.121 274.994 137.788V69.9876C274.994 63.5876 273.261 58.7876 269.794 55.5876C266.461 52.2543 261.461 50.5876 254.794 50.5876C251.594 50.5876 248.461 51.1876 245.394 52.3876C242.327 53.4543 239.461 55.0543 236.794 57.1876C234.261 59.1876 232.061 61.6543 230.194 64.5876V137.788C230.194 139.121 229.594 140.188 228.394 140.988C227.327 141.788 225.327 142.188 222.394 142.188H220.794ZM379.522 143.188C359.122 143.188 343.456 137.054 332.522 124.788C321.589 112.521 316.122 94.8543 316.122 71.7876C316.122 48.4543 321.589 30.7209 332.522 18.5876C343.456 6.45426 359.122 0.387594 379.522 0.387594C399.922 0.387594 415.522 6.45426 426.322 18.5876C437.256 30.7209 442.722 48.4543 442.722 71.7876C442.722 94.8543 437.256 112.521 426.322 124.788C415.522 137.054 399.922 143.188 379.522 143.188ZM379.522 120.788C391.389 120.788 400.389 116.654 406.522 108.388C412.656 99.9876 415.722 87.7209 415.722 71.5876C415.722 55.4543 412.656 43.3209 406.522 35.1876C400.389 26.9209 391.389 22.7876 379.522 22.7876C367.656 22.7876 358.589 26.9209 352.322 35.1876C346.189 43.3209 343.122 55.4543 343.122 71.5876C343.122 87.7209 346.189 99.9876 352.322 108.388C358.589 116.654 367.656 120.788 379.522 120.788ZM502.811 143.188C496.545 143.188 490.811 142.721 485.611 141.788C480.545 140.721 476.145 139.388 472.411 137.788C468.678 136.188 465.678 134.654 463.411 133.188C461.811 132.121 460.478 131.121 459.411 130.188C458.345 129.121 457.811 127.854 457.811 126.388C457.811 125.188 458.011 123.721 458.411 121.988C458.811 120.254 459.345 118.521 460.011 116.788C460.678 115.054 461.411 113.654 462.211 112.588C463.145 111.388 464.145 110.788 465.211 110.788C466.411 110.788 468.745 111.654 472.211 113.388C475.678 114.988 479.811 116.654 484.611 118.388C489.545 119.988 494.878 120.788 500.611 120.788C505.145 120.788 508.878 120.188 511.811 118.988C514.745 117.788 516.945 115.921 518.411 113.388C520.011 110.854 520.811 107.721 520.811 103.988C520.811 100.521 519.878 97.5876 518.011 95.1876C516.278 92.7876 513.945 90.7209 511.011 88.9876C508.211 87.1209 504.945 85.5209 501.211 84.1876C497.611 82.7209 493.945 81.1209 490.211 79.3876C486.478 77.7876 482.811 75.9876 479.211 73.9876C475.745 71.8543 472.545 69.3209 469.611 66.3876C466.811 63.4543 464.545 59.7876 462.811 55.3876C461.211 50.9876 460.411 45.7209 460.411 39.5876C460.411 33.0543 461.678 27.3209 464.211 22.3876C466.745 17.4543 470.145 13.3876 474.411 10.1876C478.811 6.85426 483.745 4.38759 489.211 2.78759C494.811 1.18759 500.611 0.387594 506.611 0.387594C510.611 0.387594 514.545 0.720927 518.411 1.38759C522.278 2.05426 525.811 2.92093 529.011 3.9876C532.345 5.05426 535.078 6.32092 537.211 7.78759C538.545 8.72092 539.611 9.72092 540.411 10.7876C541.345 11.7209 541.811 12.6543 541.811 13.5876C541.811 14.6543 541.611 16.1209 541.211 17.9876C540.811 19.7209 540.278 21.4543 539.611 23.1876C538.945 24.9209 538.145 26.3876 537.211 27.5876C536.411 28.6543 535.478 29.1876 534.411 29.1876C532.945 29.1876 530.878 28.6543 528.211 27.5876C525.678 26.3876 522.611 25.2543 519.011 24.1876C515.411 23.1209 511.345 22.5876 506.811 22.5876C502.545 22.5876 498.945 23.1876 496.011 24.3876C493.078 25.5876 490.811 27.3876 489.211 29.7876C487.745 32.0543 487.011 34.9209 487.011 38.3876C487.011 42.2543 488.078 45.4543 490.211 47.9876C492.478 50.3876 495.411 52.3876 499.011 53.9876C502.745 55.5876 506.678 57.2543 510.811 58.9876C515.078 60.7209 519.345 62.6543 523.611 64.7876C528.011 66.9209 532.011 69.5876 535.611 72.7876C539.211 75.8543 542.078 79.7209 544.211 84.3876C546.478 89.0543 547.611 94.8543 547.611 101.788C547.611 108.988 546.411 115.254 544.011 120.588C541.745 125.788 538.478 130.054 534.211 133.388C529.945 136.721 525.145 139.188 519.811 140.788C514.478 142.388 508.811 143.188 502.811 143.188Z" fill="black"/>
</svg>
